<?xml version="1.0" encoding="us-ascii" standalone="no"?><svg xmlns="http://www.w3.org/2000/svg" xmlns:xlink="http://www.w3.org/1999/xlink" contentStyleType="text/css" height="276px" preserveAspectRatio="none" style="width:711px;height:276px;background:#FFFFFF;" version="1.1" viewBox="0 0 711 276" width="711px" zoomAndPan="magnify"><defs/><g><line style="stroke:#181818;stroke-width:0.5;stroke-dasharray:5.0,5.0;" x1="43" x2="43" y1="36.2969" y2="240.9609"/><line style="stroke:#181818;stroke-width:0.5;stroke-dasharray:5.0,5.0;" x1="302.5" x2="302.5" y1="36.2969" y2="240.9609"/><line style="stroke:#181818;stroke-width:0.5;stroke-dasharray:5.0,5.0;" x1="561" x2="561" y1="36.2969" y2="240.9609"/><rect fill="#E2E2F0" height="30.2969" rx="2.5" ry="2.5" style="stroke:#181818;stroke-width:0.5;" width="77" x="5" y="5"/><text fill="#000000" font-family="sans-serif" font-size="14" lengthAdjust="spacing" textLength="63" x="12" y="24.9951">Device A</text><rect fill="#E2E2F0" height="30.2969" rx="2.5" ry="2.5" style="stroke:#181818;stroke-width:0.5;" width="77" x="5" y="239.9609"/><text fill="#000000" font-family="sans-serif" font-size="14" lengthAdjust="spacing" textLength="63" x="12" y="259.9561">Device A</text><rect fill="#E2E2F0" height="30.2969" rx="2.5" ry="2.5" style="stroke:#181818;stroke-width:0.5;" width="120" x="242.5" y="5"/><text fill="#000000" font-family="sans-serif" font-size="14" lengthAdjust="spacing" textLength="106" x="249.5" y="24.9951">Device Service</text><rect fill="#E2E2F0" height="30.2969" rx="2.5" ry="2.5" style="stroke:#181818;stroke-width:0.5;" width="120" x="242.5" y="239.9609"/><text fill="#000000" font-family="sans-serif" font-size="14" lengthAdjust="spacing" textLength="106" x="249.5" y="259.9561">Device Service</text><rect fill="#E2E2F0" height="30.2969" rx="2.5" ry="2.5" style="stroke:#181818;stroke-width:0.5;" width="77" x="523" y="5"/><text fill="#000000" font-family="sans-serif" font-size="14" lengthAdjust="spacing" textLength="63" x="530" y="24.9951">Device B</text><rect fill="#E2E2F0" height="30.2969" rx="2.5" ry="2.5" style="stroke:#181818;stroke-width:0.5;" width="77" x="523" y="239.9609"/><text fill="#000000" font-family="sans-serif" font-size="14" lengthAdjust="spacing" textLength="63" x="530" y="259.9561">Device B</text><polygon fill="#181818" points="54.5,63.4297,44.5,67.4297,54.5,71.4297,50.5,67.4297" style="stroke:#181818;stroke-width:1.0;"/><line style="stroke:#181818;stroke-width:1.0;" x1="48.5" x2="301.5" y1="67.4297" y2="67.4297"/><text fill="#000000" font-family="sans-serif" font-size="13" lengthAdjust="spacing" textLength="235" x="60.5" y="62.3638">send close-peerconnection message</text><line style="stroke:#181818;stroke-width:1.0;" x1="43.5" x2="85.5" y1="96.5625" y2="96.5625"/><line style="stroke:#181818;stroke-width:1.0;" x1="85.5" x2="85.5" y1="96.5625" y2="109.5625"/><line style="stroke:#181818;stroke-width:1.0;" x1="44.5" x2="85.5" y1="109.5625" y2="109.5625"/><polygon fill="#181818" points="54.5,105.5625,44.5,109.5625,54.5,113.5625,50.5,109.5625" style="stroke:#181818;stroke-width:1.0;"/><text fill="#000000" font-family="sans-serif" font-size="13" lengthAdjust="spacing" textLength="136" x="50.5" y="91.4966">close peerconnection</text><polygon fill="#181818" points="549.5,134.6953,559.5,138.6953,549.5,142.6953,553.5,138.6953" style="stroke:#181818;stroke-width:1.0;"/><line style="stroke:#181818;stroke-width:1.0;" x1="302.5" x2="555.5" y1="138.6953" y2="138.6953"/><text fill="#000000" font-family="sans-serif" font-size="13" lengthAdjust="spacing" textLength="235" x="309.5" y="133.6294">send close-peerconnection message</text><line style="stroke:#181818;stroke-width:1.0;" x1="561.5" x2="603.5" y1="167.8281" y2="167.8281"/><line style="stroke:#181818;stroke-width:1.0;" x1="603.5" x2="603.5" y1="167.8281" y2="180.8281"/><line style="stroke:#181818;stroke-width:1.0;" x1="562.5" x2="603.5" y1="180.8281" y2="180.8281"/><polygon fill="#181818" points="572.5,176.8281,562.5,180.8281,572.5,184.8281,568.5,180.8281" style="stroke:#181818;stroke-width:1.0;"/><text fill="#000000" font-family="sans-serif" font-size="13" lengthAdjust="spacing" textLength="136" x="568.5" y="162.7622">close peerconnection</text><line style="stroke:#181818;stroke-width:1.0;" x1="302.5" x2="344.5" y1="209.9609" y2="209.9609"/><line style="stroke:#181818;stroke-width:1.0;" x1="344.5" x2="344.5" y1="209.9609" y2="222.9609"/><line style="stroke:#181818;stroke-width:1.0;" x1="303.5" x2="344.5" y1="222.9609" y2="222.9609"/><polygon fill="#181818" points="313.5,218.9609,303.5,222.9609,313.5,226.9609,309.5,222.9609" style="stroke:#181818;stroke-width:1.0;"/><text fill="#000000" font-family="sans-serif" font-size="13" lengthAdjust="spacing" textLength="143" x="309.5" y="204.895">delete peerconnection</text><!--SRC=[ZSn12iCW58JXlQSOiiy5kYX4l84d43CK8NsAJth-seO64aBeQXRpyPTGMugf16aO75yf4jE0e72JAIUdP_tiIlmfiUjfZN4UuxsNS8DIPiGbAyT2rfX565lAWYTLmuEcin_-EkpTLhF_rUo6Bsk-WvaBsr6y0G00]--></g></svg>