<?xml version="1.0" encoding="us-ascii" standalone="no"?><svg xmlns="http://www.w3.org/2000/svg" xmlns:xlink="http://www.w3.org/1999/xlink" contentStyleType="text/css" height="424px" preserveAspectRatio="none" style="width:1014px;height:424px;background:#FFFFFF;" version="1.1" viewBox="0 0 1014 424" width="1014px" zoomAndPan="magnify"><defs/><g><path d="M19.5,7 L657,7 A12.5,12.5 0 0 1 669.5,19.5 L669.5,33.2969 L7,33.2969 L7,19.5 A12.5,12.5 0 0 1 19.5,7 " fill="#F1F1F1" style="stroke:#F1F1F1;stroke-width:1.0;"/><rect fill="none" height="411.5625" rx="12.5" ry="12.5" style="stroke:#181818;stroke-width:0.5;" width="662.5" x="7" y="7"/><line style="stroke:#181818;stroke-width:0.5;" x1="7" x2="669.5" y1="33.2969" y2="33.2969"/><text fill="#000000" font-family="sans-serif" font-size="14" lengthAdjust="spacing" textLength="44" x="316.25" y="24.9951">active</text><ellipse cx="154" cy="54.2969" fill="#222222" rx="10" ry="10" style="stroke:#222222;stroke-width:1.0;"/><g id="active.new"><rect fill="#F1F1F1" height="50.2656" rx="12.5" ry="12.5" style="stroke:#181818;stroke-width:0.5;" width="252" x="28" y="100.2969"/><line style="stroke:#181818;stroke-width:0.5;" x1="28" x2="280" y1="126.5938" y2="126.5938"/><text fill="#000000" font-family="sans-serif" font-size="14" lengthAdjust="spacing" textLength="29" x="139.5" y="118.292">new</text><text fill="#000000" font-family="sans-serif" font-size="12" lengthAdjust="spacing" textLength="232" x="33" y="142.7324">The peerconnection has been created</text></g><g id="active.connecting"><rect fill="#F1F1F1" height="50.2656" rx="12.5" ry="12.5" style="stroke:#181818;stroke-width:0.5;" width="270" x="19" y="186.2969"/><line style="stroke:#181818;stroke-width:0.5;" x1="19" x2="289" y1="212.5938" y2="212.5938"/><text fill="#000000" font-family="sans-serif" font-size="14" lengthAdjust="spacing" textLength="81" x="113.5" y="204.292">connecting</text><text fill="#000000" font-family="sans-serif" font-size="12" lengthAdjust="spacing" textLength="250" x="24" y="228.7324">The peerconnection has started signaling</text></g><g id="active.connected"><rect fill="#F1F1F1" height="50.2656" rx="12.5" ry="12.5" style="stroke:#181818;stroke-width:0.5;" width="353" x="307.5" y="186.2969"/><line style="stroke:#181818;stroke-width:0.5;" x1="307.5" x2="660.5" y1="212.5938" y2="212.5938"/><text fill="#000000" font-family="sans-serif" font-size="14" lengthAdjust="spacing" textLength="77" x="445.5" y="204.292">connected</text><text fill="#000000" font-family="sans-serif" font-size="12" lengthAdjust="spacing" textLength="333" x="312.5" y="228.7324">The peerconnection has been established successfully</text></g><g id="active.disconnected"><rect fill="#F1F1F1" height="50.2656" rx="12.5" ry="12.5" style="stroke:#181818;stroke-width:0.5;" width="287" x="175.5" y="272.2969"/><line style="stroke:#181818;stroke-width:0.5;" x1="175.5" x2="462.5" y1="298.5938" y2="298.5938"/><text fill="#000000" font-family="sans-serif" font-size="14" lengthAdjust="spacing" textLength="97" x="270.5" y="290.292">disconnected</text><text fill="#000000" font-family="sans-serif" font-size="12" lengthAdjust="spacing" textLength="267" x="180.5" y="314.7324">The peerconnection has been disconnected</text></g><g id="active.failed"><rect fill="#F1F1F1" height="50.2656" rx="12.5" ry="12.5" style="stroke:#181818;stroke-width:0.5;" width="294" x="172" y="358.2969"/><line style="stroke:#181818;stroke-width:0.5;" x1="172" x2="466" y1="384.5938" y2="384.5938"/><text fill="#000000" font-family="sans-serif" font-size="14" lengthAdjust="spacing" textLength="40" x="299" y="376.292">failed</text><text fill="#000000" font-family="sans-serif" font-size="12" lengthAdjust="spacing" textLength="274" x="177" y="400.7324">The peerconnection has failed unrecoverably</text></g><!--link *start*active to new--><g id="link_*start*active_new"><path d="M154,64.3179 C154,73.3769 154,81.7319 154,94.1279 " fill="none" id="*start*active-to-new" style="stroke:#181818;stroke-width:1.0;"/><polygon fill="#181818" points="154,100.1279,158,91.1279,154,95.1279,150,91.1279,154,100.1279" style="stroke:#181818;stroke-width:1.0;"/></g><!--link new to connecting--><g id="link_new_connecting"><path d="M154,150.5929 C154,161.7379 154,168.9179 154,180.0549 " fill="none" id="new-to-connecting" style="stroke:#181818;stroke-width:1.0;"/><polygon fill="#181818" points="154,186.0549,158,177.0549,154,181.0549,150,177.0549,154,186.0549" style="stroke:#181818;stroke-width:1.0;"/></g><!--link connecting to connected--><g id="link_connecting_connected"><path d="M289.029,211.2969 C295.122,211.2969 295.215,211.2969 301.308,211.2969 " fill="none" id="connecting-to-connected" style="stroke:#181818;stroke-width:1.0;"/><polygon fill="#181818" points="307.308,211.2969,298.308,207.2969,302.308,211.2969,298.308,215.2969,307.308,211.2969" style="stroke:#181818;stroke-width:1.0;"/></g><!--link connecting to disconnected--><g id="link_connecting_disconnected"><path d="M195.112,236.3679 C216.432,247.6149 237.29,258.3267 260.156,269.5737 " fill="none" id="connecting-to-disconnected" style="stroke:#181818;stroke-width:1.0;"/><polygon fill="#181818" points="265.54,272.2219,259.2295,264.6603,261.0534,270.0151,255.6986,271.8389,265.54,272.2219" style="stroke:#181818;stroke-width:1.0;"/></g><!--link connecting to failed--><g id="link_connecting_failed"><path d="M149.969,236.3489 C147.309,260.5549 147.212,297.7289 166,322.2969 C178.046,338.0486 189.4077,347.0968 207.4667,355.6693 " fill="none" id="connecting-to-failed" style="stroke:#181818;stroke-width:1.0;"/><polygon fill="#181818" points="212.887,358.2423,206.4719,350.7693,208.3701,356.0981,203.0412,357.9963,212.887,358.2423" style="stroke:#181818;stroke-width:1.0;"/></g><!--link connected to disconnected--><g id="link_connected_disconnected"><path d="M430.547,236.3679 C407.681,247.6149 386.747,258.1755 365.425,269.4225 " fill="none" id="connected-to-disconnected" style="stroke:#181818;stroke-width:1.0;"/><polygon fill="#181818" points="360.118,272.2219,369.9446,271.5608,364.5405,269.8891,366.2122,264.4849,360.118,272.2219" style="stroke:#181818;stroke-width:1.0;"/></g><!--link connected to failed--><g id="link_connected_failed"><path d="M487.762,236.3649 C490.162,260.5839 489.89,297.7669 471,322.2969 C458.883,338.0313 447.4503,347.0781 429.3543,355.6512 " fill="none" id="connected-to-failed" style="stroke:#181818;stroke-width:1.0;"/><polygon fill="#181818" points="423.932,358.2201,433.778,357.9817,428.4506,356.0794,430.3529,350.752,423.932,358.2201" style="stroke:#181818;stroke-width:1.0;"/></g><!--link disconnected to connecting--><g id="link_disconnected_connecting"><path d="M277.882,272.2219 C256.56,260.9749 235.703,250.2631 212.837,239.0161 " fill="none" id="disconnected-to-connecting" style="stroke:#181818;stroke-width:1.0;"/><polygon fill="#181818" points="207.453,236.3679,213.7635,243.9295,211.9396,238.5747,217.2944,236.7508,207.453,236.3679" style="stroke:#181818;stroke-width:1.0;"/></g><!--link disconnected to connected--><g id="link_disconnected_connected"><path d="M372.46,272.2219 C395.326,260.9749 416.2612,250.4144 437.5812,239.1674 " fill="none" id="disconnected-to-connected" style="stroke:#181818;stroke-width:1.0;"/><polygon fill="#181818" points="442.888,236.3679,433.0614,237.0293,438.4656,238.7008,436.7941,244.1051,442.888,236.3679" style="stroke:#181818;stroke-width:1.0;"/></g><!--link disconnected to failed--><g id="link_disconnected_failed"><path d="M319,322.5932 C319,333.7376 319,340.9175 319,352.0552 " fill="none" id="disconnected-to-failed" style="stroke:#181818;stroke-width:1.0;"/><polygon fill="#181818" points="319,358.0552,323,349.0552,319,353.0552,315,349.0552,319,358.0552" style="stroke:#181818;stroke-width:1.0;"/></g><g id="closed"><rect fill="#F1F1F1" height="50.2656" rx="12.5" ry="12.5" style="stroke:#181818;stroke-width:0.5;" width="246" x="705.5" y="188"/><line style="stroke:#181818;stroke-width:0.5;" x1="705.5" x2="951.5" y1="214.2969" y2="214.2969"/><text fill="#000000" font-family="sans-serif" font-size="14" lengthAdjust="spacing" textLength="46" x="805.5" y="205.9951">closed</text><text fill="#000000" font-family="sans-serif" font-size="12" lengthAdjust="spacing" textLength="226" x="710.5" y="230.4355">The peerconnection has been closed</text></g><ellipse cx="997.5" cy="213" fill="none" rx="11" ry="11" style="stroke:#222222;stroke-width:1.0;"/><ellipse cx="997.5" cy="213" fill="#222222" rx="6" ry="6" style="stroke:#222222;stroke-width:1.0;"/><!--link active to closed--><g id="link_active_closed"><path d="M670.111,213 C681.867,213 687.622,213 699.378,213 " fill="none" id="active-to-closed" style="stroke:#181818;stroke-width:1.0;"/><polygon fill="#181818" points="705.378,213,696.378,209,700.378,213,696.378,217,705.378,213" style="stroke:#181818;stroke-width:1.0;"/></g><!--link closed to *end*--><g id="link_closed_*end*"><path d="M951.619,213 C963.209,213 968.799,213 980.388,213 " fill="none" id="closed-to-*end*" style="stroke:#181818;stroke-width:1.0;"/><polygon fill="#181818" points="986.388,213,977.388,209,981.388,213,977.388,217,986.388,213" style="stroke:#181818;stroke-width:1.0;"/></g><!--SRC=[XL9B3eCW4DrpYbatyG8kUehkcYuGfqf2e67KnZIzUmT5HOsL7RmFRnvG8ni4gHhT8Nm4yBfV7f1bLx3u5iC13HpUGWxpkjK8BqIldBN8ScUXbWG5eWNbaHLb8fvOjXey3iJCzQm3qfMLXibx1qRpi-kH5ONHL0UhLYaaUhR6z8bRgIar_EUMKXE7fzHc2dES9x9Qwr6v3ZtdwiLNn96CezFhHv8GeVxmAakJGYIjBaWWfm0Zgn4ss9Xmbd2U8qM49i6gmaso8unrEsZoYtymaEF8iHy-uI_v0m00]--></g></svg>