<?xml version="1.0" encoding="us-ascii" standalone="no"?><svg xmlns="http://www.w3.org/2000/svg" xmlns:xlink="http://www.w3.org/1999/xlink" contentStyleType="text/css" height="416px" preserveAspectRatio="none" style="width:656px;height:416px;background:#FFFFFF;" version="1.1" viewBox="0 0 656 416" width="656px" zoomAndPan="magnify"><defs/><g><rect fill="none" height="59.2656" style="stroke:#000000;stroke-width:1.5;" width="337" x="261" y="111.5625"/><rect fill="none" height="59.2656" style="stroke:#000000;stroke-width:1.5;" width="389" x="261" y="184.8281"/><rect fill="none" height="46.2656" style="stroke:#000000;stroke-width:1.5;" width="391" x="10" y="258.0938"/><rect fill="none" height="46.2656" style="stroke:#000000;stroke-width:1.5;" width="391" x="10" y="318.3594"/><line style="stroke:#181818;stroke-width:0.5;stroke-dasharray:5.0,5.0;" x1="72" x2="72" y1="36.2969" y2="381.625"/><line style="stroke:#181818;stroke-width:0.5;stroke-dasharray:5.0,5.0;" x1="331" x2="331" y1="36.2969" y2="381.625"/><line style="stroke:#181818;stroke-width:0.5;stroke-dasharray:5.0,5.0;" x1="536.5" x2="536.5" y1="36.2969" y2="381.625"/><rect fill="#E2E2F0" height="30.2969" rx="2.5" ry="2.5" style="stroke:#181818;stroke-width:0.5;" width="104" x="20" y="5"/><text fill="#000000" font-family="sans-serif" font-size="14" lengthAdjust="spacing" textLength="90" x="27" y="24.9951">Local Device</text><rect fill="#E2E2F0" height="30.2969" rx="2.5" ry="2.5" style="stroke:#181818;stroke-width:0.5;" width="104" x="20" y="380.625"/><text fill="#000000" font-family="sans-serif" font-size="14" lengthAdjust="spacing" textLength="90" x="27" y="400.6201">Local Device</text><rect fill="#E2E2F0" height="30.2969" rx="2.5" ry="2.5" style="stroke:#181818;stroke-width:0.5;" width="120" x="271" y="5"/><text fill="#000000" font-family="sans-serif" font-size="14" lengthAdjust="spacing" textLength="106" x="278" y="24.9951">Device Service</text><rect fill="#E2E2F0" height="30.2969" rx="2.5" ry="2.5" style="stroke:#181818;stroke-width:0.5;" width="120" x="271" y="380.625"/><text fill="#000000" font-family="sans-serif" font-size="14" lengthAdjust="spacing" textLength="106" x="278" y="400.6201">Device Service</text><rect fill="#E2E2F0" height="30.2969" rx="2.5" ry="2.5" style="stroke:#181818;stroke-width:0.5;" width="125" x="474.5" y="5"/><text fill="#000000" font-family="sans-serif" font-size="14" lengthAdjust="spacing" textLength="111" x="481.5" y="24.9951">Remote Device</text><rect fill="#E2E2F0" height="30.2969" rx="2.5" ry="2.5" style="stroke:#181818;stroke-width:0.5;" width="125" x="474.5" y="380.625"/><text fill="#000000" font-family="sans-serif" font-size="14" lengthAdjust="spacing" textLength="111" x="481.5" y="400.6201">Remote Device</text><polygon fill="#181818" points="319,63.4297,329,67.4297,319,71.4297,323,67.4297" style="stroke:#181818;stroke-width:1.0;"/><line style="stroke:#181818;stroke-width:1.0;" x1="72" x2="325" y1="67.4297" y2="67.4297"/><text fill="#000000" font-family="sans-serif" font-size="13" lengthAdjust="spacing" textLength="64" x="79" y="62.3638">reconnect</text><polygon fill="#181818" points="319,92.5625,329,96.5625,319,100.5625,323,96.5625" style="stroke:#181818;stroke-width:1.0;"/><line style="stroke:#181818;stroke-width:1.0;" x1="72" x2="325" y1="96.5625" y2="96.5625"/><text fill="#000000" font-family="sans-serif" font-size="13" lengthAdjust="spacing" textLength="167" x="79" y="91.4966">status of peerconnections</text><path d="M261,111.5625 L327,111.5625 L327,118.6953 L317,128.6953 L261,128.6953 L261,111.5625 " fill="#EEEEEE" style="stroke:#000000;stroke-width:1.5;"/><rect fill="none" height="59.2656" style="stroke:#000000;stroke-width:1.5;" width="337" x="261" y="111.5625"/><text fill="#000000" font-family="sans-serif" font-size="13" font-weight="bold" lengthAdjust="spacing" textLength="21" x="276" y="124.6294">alt</text><text fill="#000000" font-family="sans-serif" font-size="11" font-weight="bold" lengthAdjust="spacing" textLength="251" x="342" y="123.7729">[peerconnections deleted client-side]</text><line style="stroke:#181818;stroke-width:1.0;" x1="331" x2="373" y1="149.8281" y2="149.8281"/><line style="stroke:#181818;stroke-width:1.0;" x1="373" x2="373" y1="149.8281" y2="162.8281"/><line style="stroke:#181818;stroke-width:1.0;" x1="332" x2="373" y1="162.8281" y2="162.8281"/><polygon fill="#181818" points="342,158.8281,332,162.8281,342,166.8281,338,162.8281" style="stroke:#181818;stroke-width:1.0;"/><text fill="#000000" font-family="sans-serif" font-size="13" lengthAdjust="spacing" textLength="150" x="338" y="144.7622">delete peerconnections</text><path d="M261,184.8281 L327,184.8281 L327,191.9609 L317,201.9609 L261,201.9609 L261,184.8281 " fill="#EEEEEE" style="stroke:#000000;stroke-width:1.5;"/><rect fill="none" height="59.2656" style="stroke:#000000;stroke-width:1.5;" width="389" x="261" y="184.8281"/><text fill="#000000" font-family="sans-serif" font-size="13" font-weight="bold" lengthAdjust="spacing" textLength="21" x="276" y="197.895">alt</text><text fill="#000000" font-family="sans-serif" font-size="11" font-weight="bold" lengthAdjust="spacing" textLength="303" x="342" y="197.0386">[peerconnections status changed client-side]</text><line style="stroke:#181818;stroke-width:1.0;" x1="331" x2="373" y1="223.0938" y2="223.0938"/><line style="stroke:#181818;stroke-width:1.0;" x1="373" x2="373" y1="223.0938" y2="236.0938"/><line style="stroke:#181818;stroke-width:1.0;" x1="332" x2="373" y1="236.0938" y2="236.0938"/><polygon fill="#181818" points="342,232.0938,332,236.0938,342,240.0938,338,236.0938" style="stroke:#181818;stroke-width:1.0;"/><text fill="#000000" font-family="sans-serif" font-size="13" lengthAdjust="spacing" textLength="192" x="338" y="218.0278">update peerconnection status</text><path d="M10,258.0938 L76,258.0938 L76,265.2266 L66,275.2266 L10,275.2266 L10,258.0938 " fill="#EEEEEE" style="stroke:#000000;stroke-width:1.5;"/><rect fill="none" height="46.2656" style="stroke:#000000;stroke-width:1.5;" width="391" x="10" y="258.0938"/><text fill="#000000" font-family="sans-serif" font-size="13" font-weight="bold" lengthAdjust="spacing" textLength="21" x="25" y="271.1606">alt</text><text fill="#000000" font-family="sans-serif" font-size="11" font-weight="bold" lengthAdjust="spacing" textLength="255" x="91" y="270.3042">[peerconnections deleted server-side]</text><polygon fill="#181818" points="83,292.3594,73,296.3594,83,300.3594,79,296.3594" style="stroke:#181818;stroke-width:1.0;"/><line style="stroke:#181818;stroke-width:1.0;" x1="77" x2="330" y1="296.3594" y2="296.3594"/><text fill="#000000" font-family="sans-serif" font-size="13" lengthAdjust="spacing" textLength="235" x="89" y="291.2935">send close-peerconnection message</text><path d="M10,318.3594 L76,318.3594 L76,325.4922 L66,335.4922 L10,335.4922 L10,318.3594 " fill="#EEEEEE" style="stroke:#000000;stroke-width:1.5;"/><rect fill="none" height="46.2656" style="stroke:#000000;stroke-width:1.5;" width="391" x="10" y="318.3594"/><text fill="#000000" font-family="sans-serif" font-size="13" font-weight="bold" lengthAdjust="spacing" textLength="21" x="25" y="331.4263">alt</text><text fill="#000000" font-family="sans-serif" font-size="11" font-weight="bold" lengthAdjust="spacing" textLength="300" x="91" y="330.5698">[peerconnection status changed server-side]</text><polygon fill="#181818" points="83,352.625,73,356.625,83,360.625,79,356.625" style="stroke:#181818;stroke-width:1.0;"/><line style="stroke:#181818;stroke-width:1.0;" x1="77" x2="330" y1="356.625" y2="356.625"/><text fill="#000000" font-family="sans-serif" font-size="13" lengthAdjust="spacing" textLength="235" x="89" y="351.5591">send close-peerconnection message</text><!--SRC=[fP0z3i8m38NtdCBgtWimC6Ni12UmaaU9598eDfoVI6qHX9-5ZCxdpq-lSDNWGk6aD4pPSIIBMt0OY8KcQyepi7pH4VM1sEChSi0bAvub1slCP6dSDvPsLE5oId3wCXLblGhb4nMWhaJ8IOpXgFsGF28KdbmCI3fAy33KNdDjnWLvqo7vZyOrW3jpcd-BhyNpctZT_whV0akh3hNtjY9Q1MsttSs2iNDV8C8pliZxwF-Uk0C0]--></g></svg>