<?xml version="1.0" encoding="us-ascii" standalone="no"?><svg xmlns="http://www.w3.org/2000/svg" xmlns:xlink="http://www.w3.org/1999/xlink" contentStyleType="text/css" height="579px" preserveAspectRatio="none" style="width:968px;height:579px;background:#FFFFFF;" version="1.1" viewBox="0 0 968 579" width="968px" zoomAndPan="magnify"><defs/><g><line style="stroke:#181818;stroke-width:0.5;stroke-dasharray:5.0,5.0;" x1="43" x2="43" y1="36.2969" y2="389.625"/><line style="stroke:#A80036;stroke-width:1.0;stroke-dasharray:1.0,4.0;" x1="43" x2="43" y1="389.625" y2="417.625"/><line style="stroke:#181818;stroke-width:0.5;stroke-dasharray:5.0,5.0;" x1="43" x2="43" y1="417.625" y2="544.1563"/><line style="stroke:#181818;stroke-width:0.5;stroke-dasharray:5.0,5.0;" x1="424.5" x2="424.5" y1="36.2969" y2="389.625"/><line style="stroke:#A80036;stroke-width:1.0;stroke-dasharray:1.0,4.0;" x1="424.5" x2="424.5" y1="389.625" y2="417.625"/><line style="stroke:#181818;stroke-width:0.5;stroke-dasharray:5.0,5.0;" x1="424.5" x2="424.5" y1="417.625" y2="544.1563"/><line style="stroke:#181818;stroke-width:0.5;stroke-dasharray:5.0,5.0;" x1="810" x2="810" y1="36.2969" y2="389.625"/><line style="stroke:#A80036;stroke-width:1.0;stroke-dasharray:1.0,4.0;" x1="810" x2="810" y1="389.625" y2="417.625"/><line style="stroke:#181818;stroke-width:0.5;stroke-dasharray:5.0,5.0;" x1="810" x2="810" y1="417.625" y2="544.1563"/><rect fill="#E2E2F0" height="30.2969" rx="2.5" ry="2.5" style="stroke:#181818;stroke-width:0.5;" width="77" x="5" y="5"/><text fill="#000000" font-family="sans-serif" font-size="14" lengthAdjust="spacing" textLength="63" x="12" y="24.9951">Device A</text><rect fill="#E2E2F0" height="30.2969" rx="2.5" ry="2.5" style="stroke:#181818;stroke-width:0.5;" width="77" x="5" y="543.1563"/><text fill="#000000" font-family="sans-serif" font-size="14" lengthAdjust="spacing" textLength="63" x="12" y="563.1514">Device A</text><rect fill="#E2E2F0" height="30.2969" rx="2.5" ry="2.5" style="stroke:#181818;stroke-width:0.5;" width="120" x="364.5" y="5"/><text fill="#000000" font-family="sans-serif" font-size="14" lengthAdjust="spacing" textLength="106" x="371.5" y="24.9951">Device Service</text><rect fill="#E2E2F0" height="30.2969" rx="2.5" ry="2.5" style="stroke:#181818;stroke-width:0.5;" width="120" x="364.5" y="543.1563"/><text fill="#000000" font-family="sans-serif" font-size="14" lengthAdjust="spacing" textLength="106" x="371.5" y="563.1514">Device Service</text><rect fill="#E2E2F0" height="30.2969" rx="2.5" ry="2.5" style="stroke:#181818;stroke-width:0.5;" width="77" x="772" y="5"/><text fill="#000000" font-family="sans-serif" font-size="14" lengthAdjust="spacing" textLength="63" x="779" y="24.9951">Device B</text><rect fill="#E2E2F0" height="30.2969" rx="2.5" ry="2.5" style="stroke:#181818;stroke-width:0.5;" width="77" x="772" y="543.1563"/><text fill="#000000" font-family="sans-serif" font-size="14" lengthAdjust="spacing" textLength="63" x="779" y="563.1514">Device B</text><polygon fill="#181818" points="54.5,63.4297,44.5,67.4297,54.5,71.4297,50.5,67.4297" style="stroke:#181818;stroke-width:1.0;"/><line style="stroke:#181818;stroke-width:1.0;" x1="48.5" x2="423.5" y1="67.4297" y2="67.4297"/><text fill="#000000" font-family="sans-serif" font-size="13" lengthAdjust="spacing" textLength="357" x="60.5" y="62.3638">send create-peerconnection message (tiebreaker: true)</text><line style="stroke:#181818;stroke-width:1.0;" x1="43.5" x2="85.5" y1="96.5625" y2="96.5625"/><line style="stroke:#181818;stroke-width:1.0;" x1="85.5" x2="85.5" y1="96.5625" y2="109.5625"/><line style="stroke:#181818;stroke-width:1.0;" x1="44.5" x2="85.5" y1="109.5625" y2="109.5625"/><polygon fill="#181818" points="54.5,105.5625,44.5,109.5625,54.5,113.5625,50.5,109.5625" style="stroke:#181818;stroke-width:1.0;"/><text fill="#000000" font-family="sans-serif" font-size="13" lengthAdjust="spacing" textLength="144" x="50.5" y="91.4966">create peerconnection</text><polygon fill="#181818" points="798.5,134.6953,808.5,138.6953,798.5,142.6953,802.5,138.6953" style="stroke:#181818;stroke-width:1.0;"/><line style="stroke:#181818;stroke-width:1.0;" x1="424.5" x2="804.5" y1="138.6953" y2="138.6953"/><text fill="#000000" font-family="sans-serif" font-size="13" lengthAdjust="spacing" textLength="362" x="431.5" y="133.6294">send create-peerconnection message (tiebreaker: false)</text><line style="stroke:#181818;stroke-width:1.0;" x1="810.5" x2="852.5" y1="167.8281" y2="167.8281"/><line style="stroke:#181818;stroke-width:1.0;" x1="852.5" x2="852.5" y1="167.8281" y2="180.8281"/><line style="stroke:#181818;stroke-width:1.0;" x1="811.5" x2="852.5" y1="180.8281" y2="180.8281"/><polygon fill="#181818" points="821.5,176.8281,811.5,180.8281,821.5,184.8281,817.5,180.8281" style="stroke:#181818;stroke-width:1.0;"/><text fill="#000000" font-family="sans-serif" font-size="13" lengthAdjust="spacing" textLength="144" x="817.5" y="162.7622">create peerconnection</text><line style="stroke:#181818;stroke-width:1.0;" x1="43.5" x2="85.5" y1="209.9609" y2="209.9609"/><line style="stroke:#181818;stroke-width:1.0;" x1="85.5" x2="85.5" y1="209.9609" y2="222.9609"/><line style="stroke:#181818;stroke-width:1.0;" x1="44.5" x2="85.5" y1="222.9609" y2="222.9609"/><polygon fill="#181818" points="54.5,218.9609,44.5,222.9609,54.5,226.9609,50.5,222.9609" style="stroke:#181818;stroke-width:1.0;"/><text fill="#000000" font-family="sans-serif" font-size="13" lengthAdjust="spacing" textLength="76" x="50.5" y="204.895">create offer</text><polygon fill="#181818" points="412.5,248.0938,422.5,252.0938,412.5,256.0938,416.5,252.0938" style="stroke:#181818;stroke-width:1.0;"/><line style="stroke:#181818;stroke-width:1.0;" x1="43.5" x2="418.5" y1="252.0938" y2="252.0938"/><text fill="#000000" font-family="sans-serif" font-size="13" lengthAdjust="spacing" textLength="66" x="50.5" y="247.0278">send offer</text><polygon fill="#181818" points="798.5,277.2266,808.5,281.2266,798.5,285.2266,802.5,281.2266" style="stroke:#181818;stroke-width:1.0;"/><line style="stroke:#181818;stroke-width:1.0;" x1="424.5" x2="804.5" y1="281.2266" y2="281.2266"/><text fill="#000000" font-family="sans-serif" font-size="13" lengthAdjust="spacing" textLength="85" x="431.5" y="276.1606">forward offer</text><line style="stroke:#181818;stroke-width:1.0;" x1="810.5" x2="852.5" y1="310.3594" y2="310.3594"/><line style="stroke:#181818;stroke-width:1.0;" x1="852.5" x2="852.5" y1="310.3594" y2="323.3594"/><line style="stroke:#181818;stroke-width:1.0;" x1="811.5" x2="852.5" y1="323.3594" y2="323.3594"/><polygon fill="#181818" points="821.5,319.3594,811.5,323.3594,821.5,327.3594,817.5,323.3594" style="stroke:#181818;stroke-width:1.0;"/><text fill="#000000" font-family="sans-serif" font-size="13" lengthAdjust="spacing" textLength="92" x="817.5" y="305.2935">create answer</text><polygon fill="#181818" points="435.5,348.4922,425.5,352.4922,435.5,356.4922,431.5,352.4922" style="stroke:#181818;stroke-width:1.0;"/><line style="stroke:#181818;stroke-width:1.0;" x1="429.5" x2="809.5" y1="352.4922" y2="352.4922"/><text fill="#000000" font-family="sans-serif" font-size="13" lengthAdjust="spacing" textLength="82" x="441.5" y="347.4263">send answer</text><polygon fill="#181818" points="54.5,377.625,44.5,381.625,54.5,385.625,50.5,381.625" style="stroke:#181818;stroke-width:1.0;"/><line style="stroke:#181818;stroke-width:1.0;" x1="48.5" x2="423.5" y1="381.625" y2="381.625"/><text fill="#000000" font-family="sans-serif" font-size="13" lengthAdjust="spacing" textLength="101" x="60.5" y="376.5591">forward answer</text><polygon fill="#181818" points="412.5,434.7578,422.5,438.7578,412.5,442.7578,416.5,438.7578" style="stroke:#181818;stroke-width:1.0;"/><line style="stroke:#181818;stroke-width:1.0;" x1="43.5" x2="418.5" y1="438.7578" y2="438.7578"/><text fill="#000000" font-family="sans-serif" font-size="13" lengthAdjust="spacing" textLength="154" x="50.5" y="433.6919">send signaling message</text><polygon fill="#181818" points="798.5,463.8906,808.5,467.8906,798.5,471.8906,802.5,467.8906" style="stroke:#181818;stroke-width:1.0;"/><line style="stroke:#181818;stroke-width:1.0;" x1="424.5" x2="804.5" y1="467.8906" y2="467.8906"/><text fill="#000000" font-family="sans-serif" font-size="13" lengthAdjust="spacing" textLength="269" x="431.5" y="462.8247">forward signaling message from Device A</text><polygon fill="#181818" points="435.5,493.0234,425.5,497.0234,435.5,501.0234,431.5,497.0234" style="stroke:#181818;stroke-width:1.0;"/><line style="stroke:#181818;stroke-width:1.0;" x1="429.5" x2="809.5" y1="497.0234" y2="497.0234"/><text fill="#000000" font-family="sans-serif" font-size="13" lengthAdjust="spacing" textLength="154" x="441.5" y="491.9575">send signaling message</text><polygon fill="#181818" points="54.5,522.1563,44.5,526.1563,54.5,530.1563,50.5,526.1563" style="stroke:#181818;stroke-width:1.0;"/><line style="stroke:#181818;stroke-width:1.0;" x1="48.5" x2="423.5" y1="526.1563" y2="526.1563"/><text fill="#000000" font-family="sans-serif" font-size="13" lengthAdjust="spacing" textLength="268" x="60.5" y="521.0903">forward signaling message from Device B</text><!--SRC=[dL5B2eCm4Dtd54DNxK8FuA9Wy0QUO9fE95GJcQJr-bKqYXYXT1Lu_oGzSZ3Az6W3N2hw64LGNW0zLANe4sHDF9spf4vAv4nA8QeQilkO10LuiazGJ1WewubOEMj91UCiTEGzDWJNOEWnAbx41GH-qqsCrXWmUs7lNIla7nKQMpzro3NXhEEmmcbD7F4wTY_ejaWx7f0ZaMX2wuV98lT14TwUBoOjZCZpN1pwlMaijiOsyRwfBGSHQ7OTnByNXp6dgUNFgV8B]--></g></svg>